<?xml version="1.0" encoding="utf-8"?>
<!-- Generator: Adobe Illustrator 21.0.2, SVG Export Plug-In . SVG Version: 6.00 Build 0)  -->
<svg version="1.1" id="Layer_1" xmlns="http://www.w3.org/2000/svg" xmlns:xlink="http://www.w3.org/1999/xlink" x="0px" y="0px"
	 width="290px" height="112px" viewBox="0 0 290 112" style="enable-background:new 0 0 290 112;" xml:space="preserve">
<g>
	<path d="M65.5,75.2c-0.5,0-0.9-0.4-0.9-0.9V45.4h-5.9v27c0,0.5-0.4,0.9-0.9,0.9H39.1c-0.5,0-0.9-0.4-0.9-0.9v-27h-5.9v28.8
		c0,0.5-0.4,0.9-0.9,0.9c-0.5,0-0.9-0.4-0.9-0.9V44.5c0-0.5,0.4-0.9,0.9-0.9h7.8c0.5,0,0.9,0.4,0.9,0.9v27h16.7v-27
		c0-0.5,0.4-0.9,0.9-0.9h7.8c0.5,0,0.9,0.4,0.9,0.9v29.7C66.4,74.7,66,75.2,65.5,75.2L65.5,75.2z"/>
	<path d="M65.5,110.2h-7.8c-0.5,0-0.9-0.4-0.9-0.9V81.2H40v28.1c0,0.5-0.4,0.9-0.9,0.9h-7.8c-0.5,0-0.9-0.4-0.9-0.9V78.1
		c0-0.5,0.4-0.9,0.9-0.9c0.5,0,0.9,0.4,0.9,0.9v30.2h5.9V80.3c0-0.5,0.4-0.9,0.9-0.9h18.6c0.5,0,0.9,0.4,0.9,0.9v28.1h5.9V78.1
		c0-0.5,0.4-0.9,0.9-0.9c0.5,0,0.9,0.4,0.9,0.9v31.2C66.4,109.8,66,110.2,65.5,110.2L65.5,110.2z"/>
	<path d="M143.6,91.9c0,4.7-1.6,9-4.5,12.3c-3.3,3.7-8,5.6-13.7,5.6H96.1c-0.5,0-0.9-0.4-0.9-0.9c0-0.5,0.4-0.9,0.9-0.9h29.3
		c5.1,0,9.3-1.7,12.3-5c2.6-2.9,4-6.8,4-11c0-4.3-1.5-8.3-4.1-11.2c-3-3.3-7.2-5.1-12.2-5.1H96.1c-0.5,0-0.9-0.4-0.9-0.9
		s0.4-0.9,0.9-0.9h29.3C137.4,73.7,143.6,82.8,143.6,91.9L143.6,91.9z"/>
	<path d="M135.9,93.6c0,0.1,0,0.1,0,0.2c-1,4.9-5.1,8.1-10.5,8.1H78.6v5.9h13.7c0.5,0,0.9,0.4,0.9,0.9c0,0.5-0.4,0.9-0.9,0.9H77.6
		c-0.5,0-0.9-0.4-0.9-0.9V101c0-0.5,0.4-0.9,0.9-0.9h47.8c5.4,0,8-3.4,8.6-6.6c0.1-0.5,0.6-0.8,1.1-0.7
		C135.6,92.8,135.9,93.2,135.9,93.6L135.9,93.6z"/>
	<path d="M135.9,89.8c0,0.4-0.3,0.8-0.8,0.9c-0.5,0.1-1-0.2-1.1-0.7c-0.6-3.2-3.2-6.6-8.6-6.6H77.6c-0.5,0-0.9-0.4-0.9-0.9v-7.8
		c0-0.5,0.4-0.9,0.9-0.9h14.6c0.5,0,0.9,0.4,0.9,0.9s-0.4,0.9-0.9,0.9H78.6v5.9h46.9c5.4,0,9.5,3.2,10.5,8.1
		C135.9,89.7,135.9,89.7,135.9,89.8L135.9,89.8z"/>
	<path d="M147.3,39.4c-0.2,0-0.3,0-0.5-0.1c-15.3-8.6-16.9-13.6-17.5-19.1c0,0,0,0,0,0c-0.3-5,1.5-9.8,4.9-13.4
		C137.8,3,142.7,1,148,1c10.2,0,18.5,8.4,18.5,18.7c0,0.5-0.4,0.9-0.9,0.9h-8.2c-0.5,0-0.9-0.4-0.9-0.9c-0.2-5.1-3.6-8.5-8.4-8.5
		c-2.6,0-4.9,1-6.5,2.6c-1.4,1.5-2.1,3.5-1.9,5.7c0.2,3.8,3.3,5.9,8.3,9.1c0.4,0.3,0.6,0.8,0.3,1.3c-0.3,0.4-0.8,0.6-1.3,0.3
		c-5.4-3.3-9-5.9-9.2-10.5c-0.2-2.7,0.7-5.2,2.4-7.1c1.9-2.1,4.8-3.2,7.9-3.2c5.6,0,9.7,3.8,10.2,9.4h6.4
		c-0.5-8.8-7.8-15.9-16.6-15.9c-4.8,0-9.1,1.8-12.3,5.1c-3.1,3.2-4.6,7.5-4.4,12c0.5,5,2.1,9.5,16.5,17.6c0.4,0.3,0.6,0.8,0.4,1.3
		C148,39.2,147.7,39.4,147.3,39.4L147.3,39.4z"/>
	<path d="M149,69.1c-10.4,0-18.8-8.6-18.8-19.2c0-0.5,0.4-0.9,0.9-0.9h8.4c0.5,0,0.9,0.4,0.9,0.9c0.1,5,3.8,8.7,8.6,8.7
		c2.6,0,5-1,6.6-2.7c1.5-1.6,2.2-3.6,2-5.9c-0.2-3.8-2.9-5.9-7.4-8.8c-0.4-0.3-0.6-0.9-0.3-1.3c0.3-0.4,0.9-0.6,1.3-0.3
		c4.9,3.1,8.1,5.6,8.3,10.2c0.2,2.8-0.7,5.4-2.5,7.3c-1.9,2.1-4.8,3.3-8,3.3c-5.5,0-9.8-4.1-10.4-9.6H132
		c0.5,9.1,7.9,16.3,16.9,16.3c4.8,0,9.2-1.9,12.4-5.2c3.2-3.3,4.8-7.8,4.5-12.4c-0.5-5-2-9.8-15.8-17.5c-0.5-0.3-0.6-0.8-0.4-1.3
		c0.3-0.5,0.8-0.6,1.3-0.4c13.2,7.4,16.1,12.5,16.7,18.9c0,0,0,0,0,0c0.3,5.1-1.6,10.2-5.1,13.8C159.2,67.1,154.3,69.1,149,69.1
		L149,69.1z"/>
	<path d="M213.9,110.2h-34.2c-0.5,0-0.9-0.4-0.9-0.9V78.3c0-0.5,0.4-0.9,0.9-0.9c0.5,0,0.9,0.4,0.9,0.9v30h32.3v-5.9h-25.4
		c-0.5,0-0.9-0.4-0.9-0.9V80.2c0-0.5,0.4-0.9,0.9-0.9h13.1v-0.9c0-0.5,0.4-0.9,0.9-0.9c0.5,0,0.9,0.4,0.9,0.9v1.8
		c0,0.5-0.4,0.9-0.9,0.9h-13.1v19.4h25.4c0.5,0,0.9,0.4,0.9,0.9v7.8C214.8,109.8,214.4,110.2,213.9,110.2L213.9,110.2z"/>
	<path d="M201.5,75.4c-0.5,0-0.9-0.4-0.9-0.9v-1.1h-13.1c-0.5,0-0.9-0.4-0.9-0.9V52.2c0-0.5,0.4-0.9,0.9-0.9h25.4v-5.9h-32.3v29
		c0,0.5-0.4,0.9-0.9,0.9c-0.5,0-0.9-0.4-0.9-0.9v-30c0-0.5,0.4-0.9,0.9-0.9h34.2c0.5,0,0.9,0.4,0.9,0.9v7.8c0,0.5-0.4,0.9-0.9,0.9
		h-25.4v18.3h13.1c0.5,0,0.9,0.4,0.9,0.9v2C202.4,74.9,202,75.4,201.5,75.4L201.5,75.4z"/>
	<path d="M222.3,74.1v-2.1c0-0.5,0.4-0.9,0.9-0.9h56.1V59c0-0.5,0.4-0.9,0.9-0.9h7.8c0.5,0,0.9,0.4,0.9,0.9v15.1
		c0,0.5-0.4,0.9-0.9,0.9s-0.9-0.4-0.9-0.9V59.9h-5.9v12.2c0,0.5-0.4,0.9-0.9,0.9h-56.1v1.1c0,0.5-0.4,0.9-0.9,0.9
		C222.7,75.1,222.3,74.7,222.3,74.1L222.3,74.1z"/>
	<path d="M222.3,80.1v-2c0-0.5,0.4-0.9,0.9-0.9c0.5,0,0.9,0.4,0.9,0.9v1.1h56.1c0.5,0,0.9,0.4,0.9,0.9v12.2h5.9V78.1
		c0-0.5,0.4-0.9,0.9-0.9s0.9,0.4,0.9,0.9v15.1c0,0.5-0.4,0.9-0.9,0.9h-7.8c-0.5,0-0.9-0.4-0.9-0.9V81h-56.1
		C222.7,81,222.3,80.6,222.3,80.1L222.3,80.1z"/>
	<path d="M20.4,42.9c0,0.2-0.1,0.5-0.3,0.7l-18,18c-0.3,0.3-0.7,0.3-1,0.2c-0.3-0.1-0.6-0.5-0.6-0.9v-16c0-0.5,0.4-0.9,0.9-0.9
		c0.5,0,0.9,0.4,0.9,0.9v13.8l15.7-15.7L2.4,27.2v13.7c0,0.5-0.4,0.9-0.9,0.9c-0.5,0-0.9-0.4-0.9-0.9v-16c0-0.4,0.2-0.7,0.6-0.9
		s0.8-0.1,1,0.2l18,18C20.3,42.4,20.4,42.7,20.4,42.9L20.4,42.9z"/>
</g>
</svg>
