<?xml version="1.0" encoding="utf-8"?>
<!-- Generator: Adobe Illustrator 21.0.2, SVG Export Plug-In . SVG Version: 6.00 Build 0)  -->
<svg version="1.1" id="Layer_1" xmlns="http://www.w3.org/2000/svg" xmlns:xlink="http://www.w3.org/1999/xlink" x="0px" y="0px"
	 width="69px" height="30px" viewBox="0 0 69 30" style="enable-background:new 0 0 69 30;" xml:space="preserve">
<style type="text/css">
	.st0{fill:url(#SVGID_1_);}
	.st1{fill:#FFFFFF;}
</style>
<linearGradient id="SVGID_1_" gradientUnits="userSpaceOnUse" x1="0" y1="15" x2="69" y2="15">
	<stop  offset="0" style="stop-color:#8B70C7"/>
	<stop  offset="1" style="stop-color:#A476B9"/>
</linearGradient>
<path class="st0" d="M59.1,0H69c-7.3,0.5-12.8,4.8-15.4,15c-2.2,8.6-9.9,15-19.1,15s-16.9-6.4-19.1-15C12.8,4.8,7.3,0.5,0,0h9.9
	H59.1z"/>
<g>
	<path class="st1" d="M34.5,19.6c-0.3,0-0.6-0.1-0.8-0.4L24.2,7.6c-0.3-0.4-0.3-1.1,0.1-1.4s1.1-0.3,1.4,0.1L34.5,17l8.7-10.7
		c0.4-0.4,1-0.5,1.4-0.1c0.4,0.3,0.5,1,0.1,1.4l-9.5,11.6C35.1,19.5,34.8,19.6,34.5,19.6z"/>
</g>
</svg>
